<svg width="40" height="40" viewBox="0 0 40 40" fill="none" xmlns="http://www.w3.org/2000/svg">
    <path d="M20.4187 9.97364C23.3457 9.97364 25.7272 12.3573 25.7272 15.287C25.7272 18.2167 23.3457 20.6002 20.4187 20.6002C17.4916 20.6002 15.1103 18.2167 15.1103 15.287C15.1103 12.3573 17.4916 9.97364 20.4187 9.97364V9.97364ZM20.4187 21.8092C24.0117 21.8092 26.935 18.8834 26.935 15.287C26.935 11.6906 24.0117 8.76476 20.4187 8.76476C16.8257 8.76476 13.9026 11.6906 13.9026 15.287C13.9026 18.8834 16.8257 21.8092 20.4187 21.8092Z"
          fill="#369643"/>
    <path d="M20.4188 18.5488C22.4818 18.5488 24.1542 16.8749 24.1542 14.8099C24.1542 14.5399 24.1242 14.2771 24.0698 14.0233C23.8563 14.0926 23.6183 14.1309 23.3557 14.1309C21.6214 14.1309 20.9603 12.4701 21.3658 11.197C21.0628 11.1177 20.7466 11.0711 20.4188 11.0711C18.3557 11.0711 16.6833 12.7451 16.6833 14.8099C16.6833 16.8749 18.3557 18.5488 20.4188 18.5488"
          fill="#369643"/>
    <path d="M35.7035 18.2119C35.1744 18.3303 33.0521 18.237 28.6085 17.5959C28.1406 17.5297 27.6785 17.7228 27.3987 18.1023C27.1207 18.4799 27.0726 18.9777 27.2733 19.4012C28.1421 21.2347 30.0286 25.9457 28.7837 30.0828C28.1645 32.1403 27.1756 33.3943 25.9239 33.7095C24.7121 34.015 23.5826 33.3957 23.2536 33.0661C22.191 32.0029 21.263 31.8563 20.4185 31.8563C19.6144 31.8563 18.6488 32.0001 17.5838 33.0663C17.2547 33.3955 16.1253 34.0144 14.9135 33.7095C13.6616 33.3944 12.6725 32.1403 12.0533 30.0828C10.8082 25.9453 12.695 21.2345 13.564 19.4012C13.7648 18.9776 13.7165 18.4799 13.4382 18.1023C13.1953 17.7726 12.8136 17.5828 12.4116 17.5828C12.351 17.5828 12.2898 17.5872 12.2287 17.5959C7.78521 18.2367 5.66242 18.3305 5.1338 18.2119C4.51176 17.1498 3.00176 10.936 3.20535 9.68516C4.3418 9.28601 10.7253 7.20888 20.4185 7.20888C30.1126 7.20888 36.4953 9.28601 37.6316 9.68516C37.8355 10.936 36.3255 17.1498 35.7035 18.2119ZM38.7931 9.3521C38.6939 8.88473 38.4415 8.69742 38.2472 8.62251C38.1792 8.59635 31.3107 6 20.4185 6C9.52742 6 2.65806 8.59635 2.58999 8.62251C2.39576 8.69742 2.1432 8.88463 2.04411 9.3521C1.69289 11.0086 3.53077 18.3405 4.30618 19.1166C4.58173 19.3923 5.04289 19.8536 12.4009 18.7926C12.4119 18.7908 12.4417 18.7866 12.4663 18.8198C12.4885 18.8499 12.4778 18.8725 12.4728 18.8831C11.3188 21.3175 9.5797 26.0547 10.8969 30.4316C11.8424 33.5734 13.4428 34.5858 14.6188 34.882C16.2835 35.301 17.8445 34.5149 18.4378 33.921C19.2267 33.1313 19.8487 33.0652 20.4185 33.0652C20.9881 33.0652 21.6105 33.1313 22.3995 33.921C22.8766 34.3984 23.9789 35 25.2575 34.9999C25.5696 34.9999 25.8921 34.9642 26.2186 34.882C27.3945 34.5858 28.9949 33.5734 29.9402 30.4316C31.2572 26.0553 29.5183 21.3177 28.3646 18.8831C28.3594 18.8723 28.3487 18.8499 28.3709 18.8198C28.3955 18.7867 28.4252 18.7909 28.4362 18.7926C35.7948 19.8539 36.2554 19.3922 36.5309 19.1165C37.3063 18.3405 39.1443 11.0086 38.7931 9.3521"
          fill="#369643"/>
    <path d="M24.5585 24.5528C23.7769 24.6582 23.2375 24.4803 22.6128 24.2749C22.02 24.0798 21.3479 23.8589 20.4187 23.8589C19.4896 23.8589 18.8176 24.0798 18.2248 24.2749C17.6001 24.4802 17.0614 24.6578 16.2789 24.5528C14.9119 24.3697 14.1541 22.9189 14.1467 22.9043L13.0688 23.4498C13.1105 23.5327 14.1127 25.4822 16.1187 25.751C16.3387 25.7806 16.5445 25.7936 16.7387 25.7936C17.4763 25.7936 18.0466 25.606 18.6018 25.4233C19.1578 25.2404 19.683 25.0678 20.4187 25.0678C21.1545 25.0678 21.6798 25.2404 22.2358 25.4233C22.7911 25.606 23.3611 25.7936 24.0987 25.7936C24.2929 25.7936 24.4988 25.7805 24.7189 25.751C26.7248 25.4822 27.7271 23.5327 27.7689 23.45L26.6911 22.9043C26.6835 22.9189 25.9256 24.3697 24.5585 24.5528Z"
          fill="#369643"/>
</svg>
